<svg xmlns="http://www.w3.org/2000/svg" viewBox="0 0 25 25"><defs><style>.cls-1{fill:#231f20;}</style></defs><g id="message"><path class="cls-1" d="M21.31,2H3.69A2.7,2.7,0,0,0,1,4.69V17.31A2.7,2.7,0,0,0,3.69,20H6l0,3.51a.48.48,0,0,0,.31.45.43.43,0,0,0,.19,0,.52.52,0,0,0,.35-.14l4-3.86h10.5A2.7,2.7,0,0,0,24,17.31V4.69A2.7,2.7,0,0,0,21.31,2ZM23,17.31A1.69,1.69,0,0,1,21.31,19H10.6a.52.52,0,0,0-.35.14L7,22.33l0-2.84a.49.49,0,0,0-.5-.49H3.69A1.69,1.69,0,0,1,2,17.31V4.69A1.69,1.69,0,0,1,3.69,3H21.31A1.69,1.69,0,0,1,23,4.69Z"/><path class="cls-1" d="M21.92,4.22a.51.51,0,0,0-.7-.14L12.5,9.9,3.78,4.08a.5.5,0,0,0-.56.84l9,6a.53.53,0,0,0,.56,0l9-6A.51.51,0,0,0,21.92,4.22Z"/><path class="cls-1" d="M9.12,10.17l-6,7a.51.51,0,0,0,0,.71.51.51,0,0,0,.71-.05l6-7a.51.51,0,0,0-.05-.71A.51.51,0,0,0,9.12,10.17Z"/><path class="cls-1" d="M15.88,10.17a.51.51,0,0,0-.71-.05.51.51,0,0,0-.05.71l6,7a.51.51,0,0,0,.71.05.51.51,0,0,0,.05-.71Z"/></g></svg>